<?xml version="1.0" standalone="no"?>
<!DOCTYPE svg PUBLIC "-//W3C//DTD SVG 20010904//EN"
 "http://www.w3.org/TR/2001/REC-SVG-20010904/DTD/svg10.dtd">
<svg version="1.0" xmlns="http://www.w3.org/2000/svg"
 width="750.000000pt" height="750.000000pt" viewBox="0 0 750.000000 750.000000"
 preserveAspectRatio="xMidYMid meet">
<metadata>
Created by potrace 1.11, written by Peter Selinger 2001-2013
</metadata>
<g transform="translate(0.000000,750.000000) scale(0.100000,-0.100000)"
fill="#000000" stroke="none">
<path d="M0 3750 l0 -3670 3750 0 3750 0 0 3670 0 3670 -3750 0 -3750 0 0
-3670z m4284 1784 c38 -6 50 -12 57 -31 5 -13 12 -22 16 -21 19 5 83 -25 83
-39 0 -8 9 -17 20 -20 11 -3 20 -10 20 -17 0 -6 4 -4 10 4 11 18 19 11 35 -36
11 -34 13 -35 20 -16 9 30 27 17 19 -14 -6 -22 -3 -24 26 -24 27 0 30 -3 25
-20 -5 -14 -2 -20 9 -20 17 0 20 -9 16 -47 -2 -26 3 -28 30 -11 23 14 38 4 45
-30 3 -17 -1 -22 -16 -22 -10 0 -19 5 -19 10 0 6 -6 10 -14 10 -27 0 -37 -67
-11 -76 8 -4 12 -10 9 -15 -3 -5 9 -9 26 -9 24 0 33 -6 40 -26 9 -22 16 -25
48 -24 42 3 82 -8 82 -21 0 -5 11 -14 23 -18 13 -5 32 -25 41 -45 9 -20 21
-36 26 -36 6 0 10 -14 10 -31 0 -20 4 -29 12 -27 7 3 20 -3 30 -12 20 -18 20
-77 0 -85 -8 -3 -11 -17 -8 -40 4 -30 1 -36 -22 -47 -15 -7 -31 -23 -37 -35
-5 -13 -16 -21 -25 -19 -8 2 -36 7 -62 11 -44 6 -48 4 -48 -14 0 -14 -5 -19
-15 -15 -8 4 -15 1 -15 -6 0 -10 -3 -10 -14 -1 -21 18 -28 -1 -24 -62 2 -33
-1 -51 -8 -50 -6 1 -9 -10 -6 -28 l4 -30 20 20 c21 23 49 28 45 9 -1 -8 6 -12
17 -10 13 2 17 -1 13 -11 -4 -11 8 -16 56 -21 33 -3 62 -8 64 -10 2 -2 -5 -20
-16 -39 -12 -21 -16 -39 -11 -42 15 -9 12 -25 -3 -25 -8 0 -21 -8 -30 -18 -13
-14 -14 -21 -5 -30 9 -9 9 -15 1 -23 -16 -16 -35 -1 -31 24 2 16 -3 23 -19 25
-20 3 -23 -1 -23 -27 0 -26 -4 -31 -25 -31 -14 0 -25 4 -25 8 0 4 -16 14 -36
21 -28 10 -35 17 -31 32 4 15 0 19 -24 19 -33 0 -36 -10 -12 -50 13 -23 14
-36 6 -72 -10 -41 -11 -41 -12 -10 -1 31 -22 45 -36 22 -3 -5 -15 -10 -26 -10
-10 0 -19 -4 -19 -10 0 -13 27 -13 35 0 9 14 34 0 28 -16 -3 -8 -18 -14 -34
-14 -20 0 -29 -5 -29 -16 0 -25 -24 -10 -34 22 -12 42 -21 57 -34 62 -7 2 -12
-2 -12 -10 0 -7 -15 -20 -32 -28 -18 -7 -36 -15 -40 -18 -5 -2 -8 6 -8 17 0
27 -27 38 -52 22 -17 -10 -22 -9 -37 8 -21 24 -41 28 -41 8 0 -7 20 -23 44
-36 43 -24 43 -25 25 -45 -11 -11 -19 -30 -19 -43 0 -13 -4 -23 -10 -23 -5 0
-10 23 -10 51 0 51 0 51 -30 47 -17 -3 -30 0 -30 6 0 6 -4 5 -9 -3 -6 -9 -6
-24 0 -38 13 -35 12 -40 -13 -47 -22 -6 -88 -60 -88 -71 0 -3 7 -5 15 -5 8 0
15 -4 15 -10 0 -5 -6 -10 -14 -10 -8 0 -18 5 -21 10 -3 6 -16 10 -29 10 -21 0
-22 -3 -16 -46 4 -25 5 -56 3 -69 -4 -17 1 -27 18 -36 34 -18 118 -16 160 4
38 19 153 28 185 16 17 -7 16 -8 -6 -9 -25 -2 -25 -2 5 -15 17 -8 26 -14 20
-15 -5 0 -3 -5 5 -10 12 -8 11 -13 -8 -33 -24 -26 -29 -46 -9 -48 6 -1 -6 -5
-28 -9 -22 -5 -55 -6 -72 -4 -28 3 -33 1 -33 -16 0 -16 -7 -20 -34 -20 -19 0
-38 -4 -41 -10 -3 -5 -16 -10 -28 -11 -20 -1 -20 -2 3 -8 l25 -7 -23 -8 c-13
-4 -32 -22 -43 -39 -17 -29 -19 -30 -19 -9 0 34 -17 26 -31 -15 -10 -32 -13
-35 -24 -20 -19 26 -27 20 -23 -15 2 -22 10 -36 26 -44 42 -21 47 -32 27 -54
-10 -11 -25 -18 -33 -15 -9 3 -26 -8 -43 -27 -16 -17 -29 -30 -30 -27 0 2 -3
13 -6 24 -3 11 -6 37 -6 58 -1 20 -5 37 -9 37 -4 0 -8 -19 -8 -43 l0 -43 -35
4 c-19 2 -32 8 -29 13 3 5 -2 19 -10 31 -21 30 -20 38 4 38 11 0 20 5 20 11 0
6 7 8 16 5 8 -3 12 -2 9 3 -3 5 -1 12 5 16 16 10 12 45 -5 45 -10 0 -15 -10
-15 -27 0 -22 -3 -24 -12 -15 -9 9 -13 54 -13 152 0 77 -4 140 -8 140 -5 0 -5
5 -2 10 11 17 25 11 37 -15 6 -14 15 -25 20 -25 5 0 6 5 3 10 -3 6 4 10 17 10
l23 1 -25 14 c-23 13 -23 16 -3 14 4 0 13 21 21 47 13 46 13 48 -10 66 -24 19
-48 24 -48 10 0 -5 -10 -13 -22 -19 -27 -12 -95 8 -91 26 2 6 0 11 -5 10 -16
-3 -52 14 -52 25 0 6 -5 3 -11 -6 -5 -10 -17 -18 -24 -18 -8 0 -15 -4 -15 -9
0 -6 -15 -11 -32 -13 -35 -3 -34 2 -25 -85 1 -15 12 -26 30 -32 15 -6 27 -17
27 -27 0 -9 -27 -42 -60 -74 -33 -31 -61 -68 -63 -81 -2 -12 -9 -25 -14 -26
-6 -2 -9 -21 -7 -44 2 -21 -1 -39 -6 -39 -5 0 -12 -32 -16 -70 -4 -39 -11 -73
-15 -76 -5 -3 -9 -16 -9 -29 0 -12 -7 -25 -15 -29 -8 -3 -15 -13 -15 -22 0 -9
-8 -29 -17 -45 -15 -25 -23 -29 -61 -29 -42 0 -44 -1 -38 -24 5 -20 1 -26 -16
-31 -13 -4 -37 -18 -55 -31 -17 -13 -38 -24 -47 -24 -8 0 -18 -5 -21 -11 -4
-5 -18 -14 -31 -19 -13 -5 -23 -13 -22 -18 2 -5 -12 -21 -29 -36 -18 -15 -33
-32 -33 -36 0 -5 -11 -21 -25 -36 -24 -25 -27 -26 -53 -13 -42 22 -55 38 -55
70 0 16 -4 29 -8 29 -16 0 -19 35 -4 47 20 14 11 33 -16 33 -10 0 -19 4 -19 9
0 14 -33 23 -40 10 -6 -8 -13 -8 -28 0 -20 11 -21 10 -10 -21 6 -18 17 -40 24
-49 8 -8 14 -20 14 -26 0 -5 11 -22 25 -37 14 -15 25 -31 25 -37 0 -5 6 -9 13
-9 7 0 14 -9 15 -20 4 -44 6 -50 16 -50 6 0 20 -20 30 -43 25 -53 72 -132 106
-174 26 -34 60 -44 60 -18 0 8 9 20 20 27 11 7 20 18 20 25 0 16 28 43 46 43
8 0 13 -4 9 -9 -3 -5 5 -11 17 -13 17 -2 36 -30 85 -127 35 -68 61 -127 58
-131 -7 -11 -252 -12 -290 -2 -32 9 -65 49 -144 177 -27 44 -59 91 -70 104
-12 13 -21 32 -21 41 0 9 -9 25 -20 35 -11 10 -20 22 -20 28 0 5 -8 21 -19 35
-10 15 -35 59 -56 97 -20 39 -52 97 -71 130 -19 33 -53 97 -75 143 -23 45 -45
85 -50 88 -14 8 -11 67 5 89 7 11 25 56 39 100 14 44 34 98 43 120 10 22 19
45 20 50 1 6 11 34 23 63 12 29 21 64 21 77 0 34 23 115 32 115 4 0 8 10 8 22
0 41 52 128 106 177 67 61 137 95 231 110 79 12 103 8 103 -19 0 -24 -17 -37
-73 -50 -25 -7 -44 -16 -41 -21 3 -5 -4 -9 -15 -9 -11 0 -27 -8 -37 -17 -10
-10 -21 -18 -24 -18 -4 0 -26 -20 -48 -45 -41 -44 -52 -73 -32 -85 5 -3 10
-16 10 -28 0 -54 7 -82 18 -79 7 1 12 -2 12 -8 0 -5 11 2 25 16 14 14 25 29
25 33 0 16 36 39 71 45 l37 6 7 -47 c5 -36 3 -49 -8 -58 -25 -18 -29 -50 -9
-76 10 -13 23 -36 29 -51 10 -23 9 -27 -9 -31 -12 -4 -29 -2 -38 3 -10 5 -32
11 -51 14 -19 2 -44 8 -56 11 -18 6 -23 3 -23 -11 0 -12 -12 -24 -30 -32 -29
-13 -44 -55 -17 -50 8 2 13 -13 15 -45 2 -38 -1 -52 -15 -62 -15 -12 -16 -17
-5 -34 6 -12 12 -32 12 -46 0 -15 6 -25 15 -25 7 0 18 -7 23 -16 8 -15 11 -13
23 12 8 16 24 33 37 39 12 5 22 13 22 17 0 12 38 9 60 -4 15 -10 27 -10 54 0
23 9 42 10 53 4 10 -5 24 -7 30 -5 7 3 20 -3 29 -11 27 -28 50 -19 74 29 18
35 46 66 54 58 3 -3 13 0 22 8 10 8 20 12 23 10 3 -2 11 5 16 15 20 38 58 83
67 78 4 -3 8 2 8 11 0 9 14 36 31 61 16 24 28 48 25 53 -3 4 -22 11 -41 14
-50 8 -114 39 -115 55 0 14 58 42 89 42 12 0 22 9 26 23 4 12 16 32 27 43 28
31 22 88 -10 92 -13 2 -31 -3 -40 -11 -28 -25 -69 -31 -95 -14 -40 26 -91 23
-127 -8 -15 -14 -95 -24 -105 -13 -3 3 -1 17 5 32 7 19 6 32 -3 47 -10 17 -9
22 5 30 18 10 26 40 33 129 2 30 9 73 15 95 6 22 14 51 16 65 3 14 10 45 15
70 5 25 11 59 13 75 6 52 36 154 55 188 22 41 76 77 112 77 19 0 29 5 29 15 0
8 5 15 11 15 6 0 9 -6 6 -14 -8 -20 31 -43 89 -51 75 -12 93 -21 87 -44 -4
-17 -13 -21 -44 -21 -21 0 -40 -4 -43 -9 -3 -5 -20 -11 -38 -14 -32 -5 -147
-42 -178 -57 -21 -10 -39 -48 -33 -71 4 -16 15 -19 59 -19 30 0 54 4 54 9 0 5
10 13 23 16 40 12 187 86 187 95 0 4 9 6 20 3 22 -6 52 13 48 31 -1 6 1 39 5
73 8 62 -6 121 -32 137 -6 4 -38 -2 -71 -14 -33 -12 -69 -18 -80 -15 -32 10
-76 -4 -88 -28 -10 -22 -10 -22 -17 5 -5 19 -11 25 -22 21 -14 -5 -15 1 -11
42 3 26 10 50 14 54 11 7 30 38 43 66 5 11 19 30 30 42 12 12 21 27 21 34 0 6
14 28 30 49 17 21 30 42 30 48 0 5 7 12 15 16 8 3 15 12 15 21 0 8 4 15 8 15
5 0 26 25 47 56 40 58 95 102 155 124 56 20 290 35 374 24z m433 -280 c-3 -3
-12 -4 -19 -1 -8 3 -5 6 6 6 11 1 17 -2 13 -5z m83 -190 c0 -17 -22 -14 -28 4
-2 7 3 12 12 12 9 0 16 -7 16 -16z m-28 -509 c6 -28 -6 -34 -16 -9 -5 14 0 34
8 34 2 0 6 -11 8 -25z m25 -7 c-3 -7 -5 -2 -5 12 0 14 2 19 5 13 2 -7 2 -19 0
-25z m565 -88 c-12 -11 -25 -20 -29 -20 -4 0 -23 -13 -42 -29 -19 -17 -38 -28
-43 -25 -4 3 -8 1 -8 -5 0 -5 6 -11 13 -14 6 -2 9 -8 5 -12 -4 -4 -14 -5 -23
-2 -38 15 1 107 47 107 15 0 30 5 33 10 3 6 20 10 37 10 l32 0 -22 -20z m11
-165 c3 -19 4 -48 2 -65 -2 -16 0 -30 5 -30 5 0 12 -9 15 -20 10 -31 22 -15
29 40 4 27 11 50 16 50 6 0 10 6 10 14 0 20 19 31 32 18 12 -12 -8 -122 -23
-122 -5 0 -9 -7 -9 -15 0 -8 -4 -15 -9 -15 -5 0 -12 -11 -15 -25 -4 -17 -11
-22 -22 -18 -12 4 -14 0 -8 -22 4 -18 3 -26 -3 -22 -6 4 -9 -5 -7 -23 2 -17
-1 -30 -6 -30 -6 0 -10 -6 -10 -12 0 -15 -33 -47 -70 -70 -32 -21 -125 -33
-135 -19 -3 6 -23 11 -44 11 -51 0 -82 26 -84 70 -2 31 1 36 33 46 21 7 39 8
45 3 5 -5 24 -9 42 -9 24 0 33 -5 35 -17 0 -10 2 -23 2 -30 2 -16 16 -29 16
-15 0 7 7 12 15 12 19 0 19 9 0 52 -17 43 -6 58 42 58 35 0 55 22 67 73 5 23
2 29 -17 36 -39 15 -38 43 2 89 20 22 39 41 42 41 4 1 9 -15 12 -34z m-206
-32 c9 -23 -18 -90 -48 -119 l-27 -26 -18 27 c-14 22 -15 31 -6 46 7 10 12 23
12 28 0 5 4 21 10 35 7 19 16 25 40 24 18 -1 34 -7 37 -15z m-546 -164 c33
-62 16 -99 -37 -79 -22 9 -24 13 -14 25 9 10 9 15 1 15 -18 0 -13 21 12 41 27
23 24 23 38 -2z m-82 -121 c-2 -78 -2 -80 -9 -33 -12 72 -11 115 0 115 6 0 9
-33 9 -82z m-62 36 c-3 -3 -12 -4 -19 -1 -8 3 -5 6 6 6 11 1 17 -2 13 -5z
m-80 -36 c-3 -7 -5 -2 -5 12 0 14 2 19 5 13 2 -7 2 -19 0 -25z m247 -2 c-3 -7
-16 -18 -29 -24 -19 -9 -26 -7 -40 8 -15 17 -15 19 2 23 40 10 72 7 67 -7z
m-164 -36 c0 -5 -7 -10 -15 -10 -8 0 -15 5 -15 10 0 6 7 10 15 10 8 0 15 -4
15 -10z m107 -36 c-3 -3 -12 -4 -19 -1 -8 3 -5 6 6 6 11 1 17 -2 13 -5z m-671
-132 c-12 -11 -18 7 -10 30 l8 23 4 -23 c2 -13 1 -26 -2 -30z m-423 -20 c4 9
6 7 6 -4 1 -9 -4 -20 -9 -23 -14 -8 -42 14 -34 27 3 5 11 5 19 -2 10 -8 14 -7
18 2z m427 -52 c0 -36 -2 -40 -26 -40 -15 0 -23 4 -19 11 4 6 14 8 22 5 13 -5
14 0 9 29 -4 22 -3 35 4 35 5 0 10 -18 10 -40z m-643 -2 c-3 -8 -6 -5 -6 6 -1
11 2 17 5 13 3 -3 4 -12 1 -19z m642 -95 c0 -16 -3 -22 -6 -15 -2 6 -16 12
-29 12 -23 0 -31 10 -17 23 3 4 17 7 30 7 19 0 23 -5 22 -27z m1407 -38 c13
-52 -5 -92 -68 -155 -33 -34 -87 -79 -119 -101 -33 -22 -59 -44 -59 -49 0 -6
-6 -10 -14 -10 -8 0 -16 -4 -18 -8 -4 -9 -93 -72 -103 -72 -3 0 -21 -11 -39
-25 -18 -14 -36 -25 -40 -25 -4 0 -33 -17 -64 -38 -81 -54 -179 -108 -164 -90
7 9 11 20 10 25 -3 10 62 87 76 90 16 3 76 64 71 72 -2 5 11 12 31 15 19 4 44
16 55 27 10 10 22 19 25 19 3 0 23 14 44 30 21 17 41 30 44 30 6 0 16 7 49 36
7 5 39 29 72 51 66 45 155 128 155 144 0 14 31 59 41 59 5 0 11 -11 15 -25z
m-1486 -21 c0 -8 -4 -12 -10 -9 -5 3 -10 10 -10 16 0 5 5 9 10 9 6 0 10 -7 10
-16z m37 -36 c-3 -8 -6 -5 -6 6 -1 11 2 17 5 13 3 -3 4 -12 1 -19z m-40 -10
c-3 -8 -6 -5 -6 6 -1 11 2 17 5 13 3 -3 4 -12 1 -19z m30 -30 c-3 -8 -6 -5 -6
6 -1 11 2 17 5 13 3 -3 4 -12 1 -19z m238 -58 c-3 -5 -10 -10 -16 -10 -5 0 -9
5 -9 10 0 6 7 10 16 10 8 0 12 -4 9 -10z m-342 -170 c-3 -12 -8 -19 -11 -16
-5 6 5 36 12 36 2 0 2 -9 -1 -20z m268 -221 c61 -30 112 -70 101 -81 -19 -19
-182 60 -182 87 0 21 29 19 81 -6z m-1880 -705 c26 -8 63 -29 83 -47 l37 -32
-46 -52 c-47 -54 -68 -64 -82 -39 -11 18 -67 46 -93 46 -61 0 -130 -62 -130
-117 0 -32 52 -78 111 -99 68 -25 140 -82 164 -129 63 -125 -22 -332 -164
-403 -108 -54 -216 -52 -302 5 -37 25 -100 105 -98 127 0 6 28 33 61 60 47 38
62 46 69 35 5 -8 9 -18 9 -24 0 -5 8 -19 18 -30 52 -62 128 -74 183 -28 55 47
75 126 43 171 -9 13 -57 42 -107 67 -109 51 -145 86 -163 154 -13 51 -5 110
25 184 14 36 102 124 138 139 95 38 151 41 244 12z m1232 -324 c19 -13 50 -49
68 -79 30 -49 33 -62 33 -130 0 -143 -69 -271 -182 -337 -40 -24 -58 -28 -128
-28 -73 -1 -84 2 -116 26 l-36 28 -10 -63 c-6 -34 -18 -113 -28 -174 l-17
-113 -83 0 -82 0 4 32 c6 43 32 207 44 283 35 212 60 372 71 453 7 52 18 100
26 108 26 25 153 15 153 -12 0 -19 7 -17 60 12 62 33 169 31 223 -6z m574 14
c3 -9 -3 -44 -14 -78 -16 -49 -23 -61 -39 -59 -71 10 -93 6 -128 -20 -44 -34
-66 -103 -92 -285 -13 -90 -22 -125 -33 -130 -9 -5 -47 -6 -85 -4 l-68 4 5 41
c3 23 15 96 26 162 11 66 23 138 26 160 35 228 29 215 98 215 70 0 95 -8 99
-31 3 -17 7 -17 48 11 36 24 56 30 98 30 39 0 54 -4 59 -16z m403 -8 c83 -42
127 -141 113 -255 l-6 -51 -187 0 -188 0 -6 -25 c-13 -50 15 -108 61 -126 32
-12 91 8 125 43 l30 31 69 -12 c45 -9 69 -17 69 -26 0 -26 -99 -116 -155 -140
-95 -42 -219 -33 -292 22 -159 121 -75 462 135 544 69 27 174 25 232 -5z m596
14 c14 -6 39 -24 56 -42 l29 -31 22 21 c69 63 179 82 245 42 69 -42 75 -112
33 -375 -12 -71 -24 -144 -26 -161 -5 -32 -6 -32 -78 -36 -91 -6 -100 -3 -92
31 13 48 54 326 55 364 0 33 -32 67 -64 67 -59 0 -106 -88 -121 -225 -7 -63
-33 -227 -38 -231 -1 -1 -37 -4 -79 -6 l-78 -4 0 38 c0 22 4 58 10 81 25 112
43 268 34 299 -13 43 -53 59 -92 36 -52 -30 -63 -69 -117 -410 -5 -36 -6 -36
-58 -40 -85 -5 -119 1 -113 20 3 9 10 49 16 87 6 39 15 95 20 125 4 30 18 116
30 190 11 74 26 140 33 147 18 18 157 5 150 -13 -7 -19 -1 -18 53 11 51 27
121 33 170 15z m904 -14 c29 -15 55 -40 75 -71 27 -44 30 -55 30 -139 l0 -91
-190 -5 -190 -5 -3 -25 c-2 -13 1 -41 7 -62 24 -79 119 -85 186 -12 21 22 28
24 78 18 79 -9 86 -16 64 -57 -23 -42 -100 -102 -157 -122 -48 -17 -148 -20
-201 -5 -143 40 -192 233 -106 414 33 69 104 146 136 146 6 0 11 4 11 8 0 14
72 29 145 31 56 1 79 -4 115 -23z m-3375 2 c4 -3 -5 -75 -19 -160 -41 -244
-34 -288 43 -288 43 0 75 20 95 58 8 15 27 106 42 202 18 115 32 179 42 187
14 12 136 12 148 1 5 -6 -7 -92 -43 -298 -21 -124 -54 -191 -112 -235 -57 -41
-116 -57 -203 -57 -117 1 -182 45 -207 138 -8 31 -7 67 8 169 34 227 44 280
55 287 13 8 142 5 151 -4z m3824 -404 c-9 -11 -15 -12 -26 -2 -12 10 -11 14 9
29 20 16 23 16 26 3 2 -8 -2 -22 -9 -30z"/>
<path d="M4582 5249 c2 -6 8 -10 13 -10 5 0 11 4 13 10 2 6 -4 11 -13 11 -9 0
-15 -5 -13 -11z"/>
<path d="M4378 5015 c-3 -3 -68 -8 -144 -11 -131 -4 -204 -16 -204 -33 0 -4
-12 -13 -26 -19 -23 -11 -28 -9 -50 18 -14 16 -34 30 -45 30 -16 0 -18 -6 -14
-35 10 -82 18 -108 35 -112 20 -5 40 -43 40 -76 0 -27 26 -67 44 -67 14 0 52
49 48 63 -1 4 2 7 7 7 5 0 12 -11 15 -25 5 -19 18 -28 58 -40 28 -8 62 -15 75
-15 13 0 23 -5 23 -11 0 -9 19 -10 68 -4 37 5 79 8 95 7 15 -1 27 3 27 9 0 6
4 8 9 4 6 -3 6 -18 0 -38 -5 -17 -9 -33 -9 -34 0 -2 13 -3 28 -3 26 0 75 32
111 73 9 9 23 17 33 17 25 0 24 50 -2 83 -11 14 -20 35 -20 46 0 13 -9 25 -22
31 -34 14 -54 33 -62 57 -4 13 -11 22 -15 20 -4 -1 -22 13 -40 31 -31 30 -51
39 -63 27z m-40 -65 c29 -1 86 -36 72 -45 -8 -5 -3 -12 18 -22 31 -15 31 -15
12 -35 -16 -17 -26 -20 -60 -14 -36 6 -42 4 -47 -13 -6 -22 -30 -29 -112 -31
-30 -1 -57 -2 -60 -2 -3 -1 -14 2 -24 7 -9 4 -27 5 -38 2 -37 -10 -39 58 -1
78 60 32 139 69 151 71 42 8 61 16 62 27 1 6 3 4 6 -5 2 -10 12 -18 21 -18z"/>
<path d="M4390 4860 c-9 -6 -10 -10 -3 -10 6 0 15 5 18 10 8 12 4 12 -15 0z"/>
<path d="M3990 4685 c0 -8 7 -15 15 -15 8 0 15 7 15 15 0 8 -7 15 -15 15 -8 0
-15 -7 -15 -15z"/>
<path d="M4880 4690 c20 -13 40 -13 40 0 0 6 -12 10 -27 10 -22 0 -25 -2 -13
-10z"/>
<path d="M3957 4530 c-21 -25 -22 -39 0 -55 22 -16 29 -115 8 -115 -7 0 -16
-6 -18 -12 -4 -9 -6 -8 -6 2 -1 24 -57 53 -84 44 -12 -5 -26 -7 -30 -6 -5 2
-23 -6 -40 -16 -18 -11 -45 -22 -61 -26 -43 -10 -56 -28 -49 -69 l6 -36 51 1
c28 0 88 -1 132 -2 79 -3 144 11 144 31 0 5 12 14 26 19 24 10 26 14 20 55 -3
25 -9 66 -12 93 -6 49 -20 76 -35 66 -5 -2 -11 7 -15 21 -7 30 -14 31 -37 5z"/>
<path d="M4640 4402 l0 -40 46 -4 c58 -4 78 6 64 33 -13 23 -30 25 -30 4 0
-10 -10 -15 -29 -15 -26 0 -30 3 -28 26 1 15 -4 29 -10 31 -9 3 -13 -8 -13
-35z"/>
<path d="M4565 4419 c-4 -6 -4 -13 -1 -16 8 -8 36 5 36 17 0 13 -27 13 -35 -1z"/>
<path d="M4508 4383 c7 -3 16 -2 19 1 4 3 -2 6 -13 5 -11 0 -14 -3 -6 -6z"/>
<path d="M4564 4359 c-3 -6 1 -18 10 -27 15 -15 16 -14 16 11 0 27 -13 36 -26
16z"/>
<path d="M4641 4336 c11 -9 119 -15 119 -6 0 6 -27 10 -62 10 -34 0 -59 -2
-57 -4z"/>
<path d="M4320 4256 c0 -14 5 -26 10 -26 6 0 10 7 10 15 0 8 0 18 1 22 0 4 -4
9 -10 11 -6 2 -11 -8 -11 -22z"/>
<path d="M4380 4271 l-25 -7 25 -5 c30 -6 50 -1 50 12 0 10 -14 10 -50 0z"/>
<path d="M4365 4240 c-3 -5 1 -10 10 -10 9 0 13 5 10 10 -3 6 -8 10 -10 10 -2
0 -7 -4 -10 -10z"/>
<path d="M4408 4223 c7 -3 16 -2 19 1 4 3 -2 6 -13 5 -11 0 -14 -3 -6 -6z"/>
<path d="M4035 4040 c-3 -5 -1 -10 4 -10 6 0 11 5 11 10 0 6 -2 10 -4 10 -3 0
-8 -4 -11 -10z"/>
<path d="M4003 3700 c0 -25 2 -35 4 -22 2 12 2 32 0 45 -2 12 -4 2 -4 -23z"/>
<path d="M4000 3601 c0 -12 6 -21 15 -21 8 0 15 4 15 9 0 5 -7 14 -15 21 -13
10 -15 9 -15 -9z"/>
<path d="M5361 4034 c0 -11 3 -14 6 -6 3 7 2 16 -1 19 -3 4 -6 -2 -5 -13z"/>
<path d="M3154 1861 c-105 -47 -145 -194 -74 -271 56 -60 159 -31 209 59 71
129 -16 265 -135 212z"/>
<path d="M4195 1896 c-34 -15 -85 -70 -85 -92 0 -11 21 -14 104 -14 114 0 123
5 101 56 -22 52 -69 72 -120 50z"/>
<path d="M5646 1860 c-58 -64 -52 -70 67 -70 57 0 106 3 110 6 9 10 -14 68
-35 87 -13 10 -37 17 -63 17 -37 0 -47 -5 -79 -40z"/>
</g>
</svg>
